<mxfile host="app.diagrams.net" modified="2024-04-18T04:40:53.173Z" agent="Mozilla/5.0 (Windows NT 10.0; Win64; x64) AppleWebKit/537.36 (KHTML, like Gecko) Chrome/123.0.0.0 Safari/537.36" etag="Wlv93ORDml2dF2sUzHr5" version="24.2.5" type="device">
  <diagram name="Page-1" id="ltU0XvJp9wX54HI9n6y5">
    <mxGraphModel dx="1050" dy="557" grid="1" gridSize="10" guides="1" tooltips="1" connect="1" arrows="1" fold="1" page="1" pageScale="1" pageWidth="850" pageHeight="1100" math="0" shadow="0">
      <root>
        <mxCell id="0" />
        <mxCell id="1" parent="0" />
        <mxCell id="fq0QRSD7iPIiGmC7vkay-3" value="" style="rounded=0;whiteSpace=wrap;html=1;" vertex="1" parent="1">
          <mxGeometry x="50" y="21.25" width="780" height="549.5" as="geometry" />
        </mxCell>
        <mxCell id="fq0QRSD7iPIiGmC7vkay-4" value="logo" style="rounded=1;whiteSpace=wrap;html=1;" vertex="1" parent="1">
          <mxGeometry x="70" y="40" width="110" height="40" as="geometry" />
        </mxCell>
        <mxCell id="fq0QRSD7iPIiGmC7vkay-5" value="Sign up" style="text;strokeColor=none;fillColor=none;align=center;verticalAlign=middle;spacingLeft=4;spacingRight=4;overflow=hidden;points=[[0,0.5],[1,0.5]];portConstraint=eastwest;rotatable=0;whiteSpace=wrap;html=1;fontSize=22;" vertex="1" parent="1">
          <mxGeometry x="380" y="140" width="120" height="30" as="geometry" />
        </mxCell>
        <mxCell id="fq0QRSD7iPIiGmC7vkay-6" value="first name" style="text;strokeColor=none;fillColor=none;align=center;verticalAlign=middle;spacingLeft=4;spacingRight=4;overflow=hidden;points=[[0,0.5],[1,0.5]];portConstraint=eastwest;rotatable=0;whiteSpace=wrap;html=1;" vertex="1" parent="1">
          <mxGeometry x="280" y="180" width="80" height="30" as="geometry" />
        </mxCell>
        <mxCell id="fq0QRSD7iPIiGmC7vkay-7" value="Last name" style="text;strokeColor=none;fillColor=none;align=center;verticalAlign=middle;spacingLeft=4;spacingRight=4;overflow=hidden;points=[[0,0.5],[1,0.5]];portConstraint=eastwest;rotatable=0;whiteSpace=wrap;html=1;" vertex="1" parent="1">
          <mxGeometry x="470" y="180" width="80" height="30" as="geometry" />
        </mxCell>
        <mxCell id="fq0QRSD7iPIiGmC7vkay-8" value="" style="rounded=1;whiteSpace=wrap;html=1;" vertex="1" parent="1">
          <mxGeometry x="285" y="210" width="140" height="20" as="geometry" />
        </mxCell>
        <mxCell id="fq0QRSD7iPIiGmC7vkay-9" value="" style="rounded=1;whiteSpace=wrap;html=1;" vertex="1" parent="1">
          <mxGeometry x="480" y="210" width="140" height="20" as="geometry" />
        </mxCell>
        <mxCell id="fq0QRSD7iPIiGmC7vkay-10" value="Phone number:" style="text;strokeColor=none;fillColor=none;align=center;verticalAlign=middle;spacingLeft=4;spacingRight=4;overflow=hidden;points=[[0,0.5],[1,0.5]];portConstraint=eastwest;rotatable=0;whiteSpace=wrap;html=1;" vertex="1" parent="1">
          <mxGeometry x="280" y="230" width="100" height="30" as="geometry" />
        </mxCell>
        <mxCell id="fq0QRSD7iPIiGmC7vkay-11" value="" style="rounded=1;whiteSpace=wrap;html=1;" vertex="1" parent="1">
          <mxGeometry x="285" y="260" width="340" height="21" as="geometry" />
        </mxCell>
        <mxCell id="fq0QRSD7iPIiGmC7vkay-12" value="enter your email:" style="text;strokeColor=none;fillColor=none;align=center;verticalAlign=middle;spacingLeft=4;spacingRight=4;overflow=hidden;points=[[0,0.5],[1,0.5]];portConstraint=eastwest;rotatable=0;whiteSpace=wrap;html=1;" vertex="1" parent="1">
          <mxGeometry x="280" y="281" width="100" height="30" as="geometry" />
        </mxCell>
        <mxCell id="fq0QRSD7iPIiGmC7vkay-13" value="" style="rounded=1;whiteSpace=wrap;html=1;" vertex="1" parent="1">
          <mxGeometry x="285" y="310" width="340" height="21" as="geometry" />
        </mxCell>
        <mxCell id="fq0QRSD7iPIiGmC7vkay-14" value="password:" style="text;strokeColor=none;fillColor=none;align=center;verticalAlign=middle;spacingLeft=4;spacingRight=4;overflow=hidden;points=[[0,0.5],[1,0.5]];portConstraint=eastwest;rotatable=0;whiteSpace=wrap;html=1;" vertex="1" parent="1">
          <mxGeometry x="270" y="331" width="100" height="30" as="geometry" />
        </mxCell>
        <mxCell id="fq0QRSD7iPIiGmC7vkay-15" value="" style="rounded=1;whiteSpace=wrap;html=1;" vertex="1" parent="1">
          <mxGeometry x="285" y="361" width="340" height="21" as="geometry" />
        </mxCell>
        <mxCell id="fq0QRSD7iPIiGmC7vkay-16" value="confirm:" style="text;strokeColor=none;fillColor=none;align=center;verticalAlign=middle;spacingLeft=4;spacingRight=4;overflow=hidden;points=[[0,0.5],[1,0.5]];portConstraint=eastwest;rotatable=0;whiteSpace=wrap;html=1;" vertex="1" parent="1">
          <mxGeometry x="270" y="380" width="100" height="30" as="geometry" />
        </mxCell>
        <mxCell id="fq0QRSD7iPIiGmC7vkay-17" value="" style="rounded=1;whiteSpace=wrap;html=1;" vertex="1" parent="1">
          <mxGeometry x="285" y="410" width="340" height="21" as="geometry" />
        </mxCell>
        <mxCell id="fq0QRSD7iPIiGmC7vkay-18" value="&lt;div&gt;Submit&lt;/div&gt;" style="rounded=1;whiteSpace=wrap;html=1;" vertex="1" parent="1">
          <mxGeometry x="310" y="470" width="280" height="30" as="geometry" />
        </mxCell>
        <mxCell id="fq0QRSD7iPIiGmC7vkay-19" value="Sigin in" style="rounded=1;whiteSpace=wrap;html=1;" vertex="1" parent="1">
          <mxGeometry x="310" y="520" width="280" height="30" as="geometry" />
        </mxCell>
      </root>
    </mxGraphModel>
  </diagram>
</mxfile>
